<svg width="16" height="12" viewBox="0 0 16 12" fill="none" xmlns="http://www.w3.org/2000/svg">
<g opacity="0.4">
<path d="M3.33366 5.33329C3.33366 8.27881 6.33366 11.3333 8.00033 11.3333C9.66699 11.3333 12.667 8.27881 12.667 5.33329C12.667 2.38777 10.5777 0.666626 8.00033 0.666626C5.423 0.666626 3.33366 2.38777 3.33366 5.33329Z" fill="#1463FF"/>
</g>
<path fill-rule="evenodd" clip-rule="evenodd" d="M13.7418 1.55453C13.4959 1.68007 13.3983 1.98123 13.5238 2.22718C13.9316 3.02612 14.167 3.98061 14.167 5.0832C14.167 5.77204 14.0311 6.47542 13.7891 7.16832C13.6981 7.42902 13.8356 7.71417 14.0963 7.80523C14.357 7.89629 14.6421 7.75877 14.7332 7.49807C15.0056 6.71803 15.167 5.90269 15.167 5.0832C15.167 3.83569 14.8999 2.7235 14.4145 1.77254C14.2889 1.52659 13.9878 1.42898 13.7418 1.55453ZM2.25884 1.55453C2.01289 1.42898 1.71173 1.52659 1.58618 1.77254C1.10076 2.7235 0.833658 3.83569 0.833658 5.0832C0.833658 5.90269 0.99501 6.71803 1.26746 7.49807C1.35852 7.75877 1.64368 7.89629 1.90437 7.80523C2.16507 7.71417 2.30259 7.42902 2.21153 7.16832C1.96952 6.47542 1.83366 5.77204 1.83366 5.0832C1.83366 3.98061 2.06904 3.02612 2.47685 2.22718C2.6024 1.98123 2.50479 1.68007 2.25884 1.55453Z" fill="#1463FF"/>
<ellipse cx="2" cy="2" rx="2" ry="2" transform="matrix(-1 0 0 1 10 3.33325)" fill="#1463FF"/>
</svg>
